PathFileType	4	(X/Y/Z)	C:/Users/opensim2020/Desktop/walking_exp_matlab/subject02_walking08_straight_02.trc	
DataRate	CameraRate	NumFrames	NumMarkers	Units	OrigDataRate	OrigDataStartFrame	OrigNumFrames	
100.00	100.00	4	41	mm	100.00	1533	259	
Frame#	Time	LFHD			RFHD			LBHD			RBHD			C7			T10			CLAV			STRN			RBAK			LSHO			LUPA			LELB			LFRM			LWRA			LWRB			LFIN			RSHO			RUPA			RELB			RFRM			RWRA			RWRB			RFIN			LASI			RASI			LPSI			RPSI			LTHI			LKNE			LTIB			LANK			LHEE			LTOE			RTHI			RKNE			RTIB			RANK			RHEE			RTOE			*39			*40			
		X1	Y1	Z1	X2	Y2	Z2	X3	Y3	Z3	X4	Y4	Z4	X5	Y5	Z5	X6	Y6	Z6	X7	Y7	Z7	X8	Y8	Z8	X9	Y9	Z9	X10	Y10	Z10	X11	Y11	Z11	X12	Y12	Z12	X13	Y13	Z13	X14	Y14	Z14	X15	Y15	Z15	X16	Y16	Z16	X17	Y17	Z17	X18	Y18	Z18	X19	Y19	Z19	X20	Y20	Z20	X21	Y21	Z21	X22	Y22	Z22	X23	Y23	Z23	X24	Y24	Z24	X25	Y25	Z25	X26	Y26	Z26	X27	Y27	Z27	X28	Y28	Z28	X29	Y29	Z29	X30	Y30	Z30	X31	Y31	Z31	X32	Y32	Z32	X33	Y33	Z33	X34	Y34	Z34	X35	Y35	Z35	X36	Y36	Z36	X37	Y37	Z37	X38	Y38	Z38	X39	Y39	Z39	X40	Y40	Z40	X41	Y41	Z41	

65	0.640	1519.39099	473.07138	1737.39795	1379.17700	492.44983	1711.12854	1549.68054	593.48053	1651.88770	1412.32507	624.56689	1624.04846	1487.98206	651.41156	1518.43005	1482.22156	718.68768	1245.22632	1487.25342	517.78662	1441.37219	1478.14685	475.91125	1266.47046	1429.62976	722.96613	1347.85266	1660.73206	558.10248	1489.39343	1752.15942	523.46332	1294.65845	1773.03723	482.11316	1160.09778	1777.31580	419.71902	1041.98633	1728.38892	329.21216	948.97565	1770.51514	363.20309	933.32257	1769.11243	316.54984	886.66455	1295.65186	590.88147	1476.59033	1220.66113	639.44916	1286.00452	1205.32764	636.29950	1138.39355	1186.96997	603.46851	1022.22046	1203.54224	542.58240	901.24329	1179.59717	592.92377	891.99426	1173.85693	550.33423	833.22046	1614.84973	496.03342	973.21735	1356.03015	490.71075	967.03094	1526.54358	703.81952	1024.85168	1412.87061	706.64185	1023.08044	1650.38611	611.24841	670.49054	1613.70715	679.72656	477.22888	1603.96582	773.59210	305.01495	1561.27075	809.87061	84.47084	1506.36316	844.22125	60.95255	1590.10925	660.32587	34.75829	1269.35181	515.34436	669.59442	1301.01636	433.93399	477.75034	1281.12512	406.39099	295.03265	1298.88867	345.62991	108.00234	1355.13232	350.79874	43.23682	1278.66431	184.06644	106.11240	1442.33704	592.21149	1788.63306	-3360.27832	2845.34766	1034.04663 
66	0.650	1518.20581	464.44250	1736.34106	1378.02454	483.70181	1710.08350	1548.32764	585.02771	1651.28333	1410.98767	616.08118	1623.36780	1486.76917	643.16931	1517.57446	1480.96851	710.39075	1244.30908	1486.28455	509.53598	1440.50940	1477.65930	467.75107	1265.79163	1428.51685	714.73901	1346.87927	1659.70276	550.08783	1488.57288	1750.75342	516.22791	1293.30554	1771.78052	475.93204	1158.69238	1776.07068	414.23398	1040.15515	1727.48352	323.85312	946.79883	1769.32703	358.39526	931.16766	1768.38757	312.12848	884.42810	1294.44116	582.04297	1475.38806	1219.70386	631.20807	1284.77332	1204.75916	628.63416	1137.36609	1186.17664	596.34100	1020.78912	1202.24915	536.46326	899.41052	1178.99512	587.38147	890.60468	1173.00732	545.07483	831.43591	1614.46692	488.42908	972.20911	1355.48645	481.64172	965.95142	1525.04431	695.77008	1024.11194	1411.35413	698.08612	1022.28247	1649.72070	605.58289	669.92401	1613.29248	675.12268	477.31165	1603.77869	770.58496	306.06857	1561.33130	809.44342	85.82823	1506.52136	843.93365	62.70559	1590.24963	660.26672	34.74970	1269.07642	507.16132	668.21051	1301.21948	425.30536	476.65280	1281.02478	395.31708	294.65302	1299.03955	331.26117	108.26667	1354.72363	336.03140	43.60077	1279.09766	169.58142	108.35858	1440.75305	583.03497	1787.82910	-3356.90552	2845.94604	1034.04492 
67	0.660	1516.74365	455.58795	1735.25415	1376.52478	475.05786	1708.91016	1546.90039	576.53168	1650.66931	1409.51355	607.61731	1622.73535	1485.42200	634.92383	1516.72278	1479.51917	701.97961	1243.37390	1485.19641	501.23535	1439.63306	1476.88342	459.37784	1264.92163	1426.94336	706.06781	1345.78040	1658.35352	541.94379	1487.71704	1749.73108	509.42093	1292.26489	1770.31238	469.91852	1157.19373	1774.69275	409.07422	1038.29993	1726.74792	319.13931	944.71509	1767.75464	353.74155	928.74500	1767.24902	307.92923	881.94000	1293.01648	573.43152	1474.26050	1218.70923	622.88867	1283.71265	1203.91907	620.71857	1136.19556	1185.68359	590.22882	1019.52808	1201.04309	530.69971	897.65363	1178.00940	581.68488	889.19409	1171.90527	539.95728	829.66217	1613.91150	480.67010	971.26929	1355.06042	472.72021	964.72113	1523.41272	687.57184	1023.37494	1409.64587	689.39069	1021.57227	1649.41370	599.98181	669.88348	1613.13635	670.14191	477.41455	1603.36035	767.27612	306.97964	1561.53113	808.71503	87.24808	1506.68469	843.46320	64.64700	1590.35632	660.21704	34.69196	1268.54126	498.43130	666.97552	1301.10498	416.39453	475.64334	1280.99438	384.65646	294.09399	1299.09131	318.78156	108.26651	1354.82080	323.08667	43.73141	1279.29785	156.93556	109.45382	1439.25586	574.08801	1787.20337	-3360.31348	2845.25098	1034.03650 
68	0.670	1514.95203	446.67941	1734.12109	1374.81885	466.09000	1707.65015	1545.36035	568.02197	1650.08521	1407.98425	599.10852	1622.08423	1483.95483	626.62695	1515.85718	1477.94006	693.47955	1242.42688	1484.01819	492.91388	1438.79456	1475.98547	450.92621	1264.13843	1425.49011	697.53723	1344.78015	1657.41187	534.08539	1487.13599	1748.11377	502.27585	1291.00610	1768.73743	464.05374	1155.70398	1773.10669	404.14960	1036.33850	1725.54224	314.51675	942.21027	1766.31079	349.69144	926.42053	1766.02930	304.18671	879.12933	1291.86475	565.56061	1473.28125	1217.79529	614.98621	1282.35364	1203.34741	612.83954	1135.14954	1184.25940	583.06122	1018.17841	1199.74109	524.76105	895.82684	1176.89526	575.92242	887.85486	1170.55444	534.75726	827.98010	1612.95776	472.55078	970.23553	1354.46399	463.73477	963.43921	1521.69775	679.25226	1022.71600	1407.81726	680.42969	1020.82599	1648.82446	593.90839	669.57861	1612.82373	664.92261	477.47742	1603.37927	764.16650	308.41940	1561.81702	808.11737	88.92424	1506.83484	843.00110	66.66003	1590.49280	660.18079	34.63342	1267.79236	488.92139	666.08990	1300.80054	406.68292	474.91644	1280.91357	374.54602	293.36200	1299.50537	308.14023	107.89616	1355.40906	311.84872	43.38228	1279.47888	146.14320	109.36371	1437.64954	565.13525	1786.56982	-3360.21094	2845.10718	1034.01440 
